<svg xmlns="http://www.w3.org/2000/svg" viewBox="0 0 22 22" role="img" aria-labelledby="aly044x0wq87dghopxcp1vp27myxwfrz" class="ez-social-link__icon"><desc id="aly044x0wq87dghopxcp1vp27myxwfrz">instagram</desc><path d="M6.47 0A6.49 6.49 0 0 0 0 6.47v9.06A6.49 6.49 0 0 0 6.47 22h9.06A6.49 6.49 0 0 0 22 15.53V6.47A6.49 6.49 0 0 0 15.53 0zm0 2h9.06A4.47 4.47 0 0 1 20 6.47v9.06A4.47 4.47 0 0 1 15.53 20H6.47A4.47 4.47 0 0 1 2 15.53V6.47A4.47 4.47 0 0 1 6.47 2zm10.44 2.19a.91.91 0 1 0 .9.9.9.9 0 0 0-.9-.9zM11 5a6 6 0 1 0 6 6 6 6 0 0 0-6-6zm0 2a4 4 0 1 1-4 4 4 4 0 0 1 4-4z"></path></svg>